<svg xmlns="http://www.w3.org/2000/svg" xmlns:xlink="http://www.w3.org/1999/xlink" width="500" zoomAndPan="magnify" viewBox="0 0 375 374.999991" height="500" preserveAspectRatio="xMidYMid meet" version="1.0"><defs><g/></defs><rect x="-37.5" width="450" fill="#ffffff" y="-37.499999" height="449.999989" fill-opacity="1"/><rect x="-37.5" width="450" fill="#d9d9d9" y="-37.499999" height="449.999989" fill-opacity="1"/><g fill="#3b3b3b" fill-opacity="1"><g transform="translate(16.270406, 229.874985)"><g><path d="M 192.859375 0 L 152.65625 0 L 152.65625 -61.109375 L 116.734375 0 L 86.75 0 L 50.890625 -61.109375 L 50.890625 0 L 10.6875 0 L 10.6875 -95.828125 L 58.4375 -95.828125 L 101.765625 -27.375 L 145.046875 -95.828125 L 192.859375 -95.828125 Z M 192.859375 0 "/></g></g></g><g fill="#3b3b3b" fill-opacity="1"><g transform="translate(205.323666, 229.874985)"><g><path d="M 79.40625 0 L 10.6875 0 L 10.6875 -95.765625 L 80.875 -95.765625 C 93.332031 -95.765625 103.59375 -95.195312 111.65625 -94.0625 C 119.71875 -92.925781 125.925781 -91.144531 130.28125 -88.71875 C 134.644531 -86.289062 137.601562 -83.207031 139.15625 -79.46875 C 140.71875 -75.726562 141.5 -71.253906 141.5 -66.046875 C 141.375 -61.953125 140.253906 -58.554688 138.140625 -55.859375 C 136.023438 -53.171875 133.550781 -51.164062 130.71875 -49.84375 C 127.894531 -48.53125 125.414062 -47.875 123.28125 -47.875 C 125.375 -47.875 127.820312 -47.460938 130.625 -46.640625 C 133.425781 -45.816406 136.148438 -44.625 138.796875 -43.0625 C 141.453125 -41.507812 143.65625 -39.617188 145.40625 -37.390625 C 147.164062 -35.171875 148.046875 -32.632812 148.046875 -29.78125 C 148.046875 -26.039062 147.613281 -22.613281 146.75 -19.5 C 145.882812 -16.382812 144.148438 -13.625 141.546875 -11.21875 C 138.941406 -8.8125 135.097656 -6.773438 130.015625 -5.109375 C 124.941406 -3.441406 118.296875 -2.171875 110.078125 -1.296875 C 101.867188 -0.429688 91.644531 0 79.40625 0 Z M 77.125 -56.09375 C 83.007812 -56.09375 87.5625 -56.378906 90.78125 -56.953125 C 94.007812 -57.535156 96.25 -58.414062 97.5 -59.59375 C 98.75 -60.78125 99.375 -62.285156 99.375 -64.109375 C 99.375 -65.972656 98.75 -67.492188 97.5 -68.671875 C 96.25 -69.859375 94.007812 -70.726562 90.78125 -71.28125 C 87.5625 -71.84375 83.007812 -72.125 77.125 -72.125 L 50.890625 -72.125 L 50.890625 -56.09375 Z M 77.125 -23.640625 C 83.132812 -23.640625 88.007812 -23.796875 91.75 -24.109375 C 95.488281 -24.421875 98.226562 -25.132812 99.96875 -26.25 C 101.707031 -27.363281 102.578125 -29.164062 102.578125 -31.65625 C 102.578125 -34.144531 101.707031 -35.957031 99.96875 -37.09375 C 98.226562 -38.226562 95.488281 -38.941406 91.75 -39.234375 C 88.007812 -39.523438 83.132812 -39.671875 77.125 -39.671875 L 50.890625 -39.671875 L 50.890625 -23.640625 Z M 77.125 -23.640625 "/></g></g></g></svg>